<?xml version="1.0" encoding="utf-8"?>
<!-- Generator: Adobe Illustrator 16.0.4, SVG Export Plug-In . SVG Version: 6.00 Build 0)  -->
<!DOCTYPE svg PUBLIC "-//W3C//DTD SVG 1.1//EN" "http://www.w3.org/Graphics/SVG/1.1/DTD/svg11.dtd" [
	<!ENTITY ns_extend "http://ns.adobe.com/Extensibility/1.0/">
	<!ENTITY ns_ai "http://ns.adobe.com/AdobeIllustrator/10.0/">
	<!ENTITY ns_graphs "http://ns.adobe.com/Graphs/1.0/">
	<!ENTITY ns_vars "http://ns.adobe.com/Variables/1.0/">
	<!ENTITY ns_imrep "http://ns.adobe.com/ImageReplacement/1.0/">
	<!ENTITY ns_sfw "http://ns.adobe.com/SaveForWeb/1.0/">
	<!ENTITY ns_custom "http://ns.adobe.com/GenericCustomNamespace/1.0/">
	<!ENTITY ns_adobe_xpath "http://ns.adobe.com/XPath/1.0/">
]>
<svg version="1.1" id="Layer_1" xmlns:x="&ns_extend;" xmlns:i="&ns_ai;" xmlns:graph="&ns_graphs;"
	 xmlns="http://www.w3.org/2000/svg" xmlns:xlink="http://www.w3.org/1999/xlink" x="0px" y="0px" width="226.68px"
	 height="55.43px" viewBox="0 0 226.68 55.43" enable-background="new 0 0 226.68 55.43" xml:space="preserve">
<metadata>
	<sfw  xmlns="&ns_sfw;">
		<slices></slices>
		<sliceSourceBounds  width="226.684" height="55.43" x="-0.002" y="-55.43" bottomLeftOrigin="true"></sliceSourceBounds>
	</sfw>
</metadata>
<g>
	<g>
		<g>
			<g>
				<g>
					
						<linearGradient id="SVGID_1_" gradientUnits="userSpaceOnUse" x1="230.9785" y1="-372.8154" x2="253.6123" y2="-372.8154" gradientTransform="matrix(1 0 0 1 -230.9805 408.9805)">
						<stop  offset="0" style="stop-color:#089BDA;stop-opacity:0.8"/>
						<stop  offset="1" style="stop-color:#089BDA"/>
					</linearGradient>
					<path fill="url(#SVGID_1_)" d="M22.629,41.678c0-0.6-0.423-1.328-0.939-1.627l-7.547-4.354
						c-0.518-0.298-0.938-1.031-0.938-1.627v-8.873c0-0.598-0.426-1.33-0.939-1.627l-11.33-6.541
						c-0.518-0.299-0.938-0.055-0.938,0.541v24.125c0,0.598,0.423,1.329,0.938,1.627l20.758,11.981
						c0.52,0.298,0.938,0.054,0.938-0.543L22.629,41.678L22.629,41.678z"/>
				</g>
				<g>
					
						<linearGradient id="SVGID_2_" gradientUnits="userSpaceOnUse" x1="258.5645" y1="-372.8145" x2="281.4961" y2="-372.8145" gradientTransform="matrix(1 0 0 1 -230.9805 408.9805)">
						<stop  offset="0" style="stop-color:#0A6EB4;stop-opacity:0.8"/>
						<stop  offset="1" style="stop-color:#0A6EB4"/>
					</linearGradient>
					<path fill="url(#SVGID_2_)" d="M38.22,23.604c-0.519,0.297-0.943,1.025-0.946,1.623l-0.034,8.717
						c-0.002,0.596-0.429,1.326-0.944,1.623l-7.707,4.4c-0.521,0.297-0.944,1.024-0.947,1.623l-0.057,13.084
						c-0.003,0.598,0.419,0.844,0.937,0.548l20.944-11.975c0.52-0.295,0.943-1.022,0.946-1.622l0.104-23.97
						c0.004-0.597-0.419-0.842-0.937-0.547L38.22,23.604z"/>
				</g>
				<g>
					
						<linearGradient id="SVGID_3_" gradientUnits="userSpaceOnUse" x1="234.0547" y1="-398.8945" x2="278.3584" y2="-398.8945" gradientTransform="matrix(1 0 0 1 -230.9805 408.9805)">
						<stop  offset="0" style="stop-color:#7CCCEE;stop-opacity:0.8"/>
						<stop  offset="1" style="stop-color:#7CCCEE"/>
					</linearGradient>
					<path fill="url(#SVGID_3_)" d="M14.765,19.794c0.519,0.3,1.361,0.305,1.88,0.007l7.568-4.328
						c0.518-0.297,1.363-0.293,1.879,0.007l7.663,4.466c0.517,0.299,1.36,0.303,1.879,0.006l11.354-6.5
						c0.518-0.297,0.52-0.784,0.004-1.086L26.145,0.227c-0.518-0.3-1.359-0.303-1.88-0.007l-20.8,11.909
						c-0.519,0.297-0.521,0.782-0.004,1.085L14.765,19.794z"/>
				</g>
			</g>
		</g>
	</g>
	<g>
		<path fill="#1E1E1E" d="M221.15,11.62l-0.01,6.588v2.795h3.1c0.695,0,1.277,0.23,1.744,0.695c0.465,0.465,0.697,1.047,0.697,1.744
			c0,0.67-0.232,1.229-0.697,1.68c-0.467,0.453-1.049,0.681-1.744,0.681h-3.1v11.819c0,0.609,0.158,1.058,0.479,1.33
			c0.32,0.276,0.759,0.414,1.31,0.414c0.234,0,0.553-0.058,0.961-0.174c0.353-0.146,0.687-0.219,1.004-0.219
			c0.406,0,0.777,0.195,1.111,0.59s0.504,0.908,0.504,1.549c0,0.785-0.432,1.447-1.289,1.984c-0.854,0.539-1.823,0.809-2.897,0.809
			c-1.808,0-3.321-0.387-4.562-1.154c-1.235-0.771-1.854-2.406-1.854-4.907V25.803h-2.01c-0.694,0-1.278-0.233-1.745-0.698
			s-0.695-1.047-0.695-1.745c0-0.668,0.229-1.229,0.695-1.68s1.051-0.677,1.745-0.677h2.01v-6.721"/>
		<g>
			<path fill="#1E1E1E" d="M68.805,11.62l-0.004,2.662v9.117c0.697-0.871,1.672-1.636,2.922-2.289c1.25-0.654,2.56-0.98,3.928-0.98
				c2.007,0,3.824,0.518,5.453,1.55c1.627,1.03,2.916,2.465,3.86,4.297c0.942,1.832,1.418,3.912,1.418,6.237
				c0,2.324-0.465,4.412-1.396,6.262c-0.933,1.847-2.205,3.285-3.815,4.316c-1.614,1.031-3.396,1.551-5.347,1.551
				c-1.396,0-2.713-0.283-3.947-0.854c-1.235-0.565-2.264-1.258-3.074-2.072v0.265c0,0.758-0.248,1.391-0.742,1.896
				c-0.494,0.512-1.121,0.768-1.876,0.768s-1.381-0.248-1.875-0.741c-0.495-0.494-0.741-1.136-0.741-1.92V14.285 M79.574,37.448
				c1.192-1.396,1.789-3.142,1.789-5.233c0-2.097-0.588-3.832-1.768-5.216c-1.178-1.381-2.711-2.068-4.604-2.068
				s-3.434,0.688-4.625,2.068c-1.192,1.384-1.787,3.119-1.787,5.216c0,2.095,0.595,3.838,1.787,5.233
				c1.191,1.396,2.732,2.098,4.625,2.098C76.855,39.542,78.382,38.844,79.574,37.448z"/>
			<path fill="#1E1E1E" d="M96.414,11.62v2.662v26.961c0,0.756-0.254,1.392-0.766,1.896c-0.509,0.51-1.144,0.766-1.896,0.766
				c-0.729,0-1.338-0.256-1.832-0.766c-0.496-0.509-0.742-1.144-0.742-1.896V14.282"/>
			<path fill="#1E1E1E" d="M122.939,38.518c-1.047,1.847-2.479,3.278-4.297,4.297c-1.815,1.019-3.815,1.526-5.998,1.526
				c-2.211,0-4.219-0.513-6.021-1.526c-1.807-1.019-3.229-2.45-4.276-4.297c-1.046-1.849-1.568-3.938-1.568-6.263
				s0.522-4.413,1.568-6.263c1.048-1.847,2.473-3.285,4.276-4.316c1.803-1.031,3.811-1.551,6.021-1.551
				c2.183,0,4.183,0.52,5.998,1.551c1.816,1.031,3.25,2.473,4.297,4.316c1.048,1.85,1.572,3.938,1.572,6.263
				C124.512,34.583,123.986,36.67,122.939,38.518z M118.379,28.438c-0.598-1.119-1.396-1.984-2.398-2.597
				c-1.002-0.609-2.114-0.916-3.336-0.916c-1.223,0-2.332,0.307-3.336,0.916c-1.005,0.609-1.806,1.478-2.398,2.597
				c-0.598,1.12-0.896,2.393-0.896,3.816c0,1.427,0.3,2.688,0.896,3.795c0.597,1.104,1.396,1.966,2.398,2.571
				c1.004,0.611,2.114,0.918,3.336,0.918s2.334-0.307,3.336-0.918c1.005-0.605,1.805-1.467,2.398-2.571
				c0.598-1.104,0.896-2.368,0.896-3.795C119.275,30.831,118.977,29.559,118.379,28.438z"/>
			<path fill="#1E1E1E" d="M145.016,21.284c1.513,0.771,2.271,1.795,2.271,3.076c0,0.639-0.191,1.199-0.568,1.68
				c-0.377,0.479-0.873,0.722-1.482,0.722c-0.466,0-0.846-0.064-1.134-0.195c-0.291-0.131-0.575-0.307-0.851-0.522
				c-0.279-0.218-0.547-0.396-0.812-0.546c-0.291-0.145-0.719-0.273-1.286-0.393c-0.563-0.115-1.022-0.174-1.375-0.174
				c-2.183,0-3.89,0.676-5.125,2.026c-1.233,1.354-1.854,3.119-1.854,5.302c0,2.095,0.623,3.832,1.875,5.215
				c1.25,1.382,2.85,2.072,4.799,2.072c1.424,0,2.486-0.179,3.188-0.522c0.174-0.088,0.412-0.241,0.721-0.459
				c0.307-0.219,0.588-0.386,0.852-0.502c0.264-0.114,0.582-0.175,0.959-0.175c0.729,0,1.303,0.229,1.727,0.695
				c0.42,0.469,0.631,1.062,0.631,1.788c0,0.699-0.406,1.354-1.221,1.966c-0.815,0.608-1.894,1.099-3.229,1.463
				c-1.339,0.358-2.765,0.545-4.274,0.545c-2.238,0-4.209-0.523-5.908-1.569c-1.703-1.048-3.021-2.493-3.949-4.343
				c-0.929-1.85-1.396-3.902-1.396-6.174c0-2.354,0.485-4.449,1.463-6.281c0.976-1.832,2.336-3.265,4.078-4.298
				c1.745-1.031,3.726-1.549,5.937-1.549C141.512,20.128,143.504,20.514,145.016,21.284z"/>
			<path fill="#1E1E1E" d="M157.012,11.62v2.662v16.144l9.336-9.03c0.553-0.553,1.193-0.828,1.92-0.828
				c0.643,0,1.215,0.27,1.727,0.808c0.51,0.539,0.766,1.084,0.766,1.638c0,0.697-0.353,1.354-1.049,1.965l-6.586,6.062l7.635,8.289
				c0.552,0.582,0.828,1.236,0.828,1.964c0,0.729-0.283,1.339-0.854,1.831c-0.562,0.496-1.17,0.742-1.809,0.742
				c-0.758,0-1.398-0.289-1.922-0.873l-7.854-8.289l-2.14,1.964v4.581c0,0.757-0.245,1.393-0.739,1.896
				c-0.496,0.51-1.119,0.766-1.877,0.766c-0.757,0-1.382-0.256-1.875-0.766c-0.496-0.509-0.742-1.144-0.742-1.896V14.287"/>
			<path fill="#1E1E1E" d="M193.703,21.678c1.627,1.032,2.914,2.465,3.855,4.297c0.945,1.832,1.418,3.912,1.418,6.237
				c0,2.324-0.465,4.414-1.396,6.262c-0.935,1.847-2.203,3.285-3.816,4.318c-1.611,1.029-3.396,1.549-5.344,1.549
				c-1.396,0-2.713-0.283-3.949-0.854c-1.233-0.566-2.262-1.258-3.073-2.07v8.551c0,0.757-0.25,1.39-0.741,1.896
				c-0.494,0.509-1.119,0.766-1.875,0.766c-0.759,0-1.384-0.248-1.875-0.741c-0.494-0.495-0.742-1.136-0.742-1.921V23.226
				c0-0.757,0.248-1.391,0.742-1.897c0.491-0.51,1.116-0.764,1.875-0.764c0.756,0,1.381,0.254,1.875,0.764
				c0.491,0.511,0.741,1.145,0.741,1.897v0.174c0.696-0.872,1.674-1.636,2.924-2.29s2.56-0.98,3.929-0.98
				C190.256,20.128,192.072,20.645,193.703,21.678z M192.176,37.448c1.189-1.396,1.787-3.142,1.787-5.233
				c0-2.097-0.588-3.832-1.768-5.216c-1.18-1.381-2.713-2.068-4.604-2.068c-1.893,0-3.434,0.688-4.625,2.068
				c-1.189,1.384-1.787,3.119-1.787,5.216c0,2.095,0.598,3.838,1.787,5.233c1.191,1.396,2.732,2.098,4.625,2.098
				C189.455,39.542,190.982,38.844,192.176,37.448z"/>
			<path fill="#1E1E1E" d="M203.518,17.249c-0.406-0.317-0.605-0.887-0.605-1.699v-0.829c0-0.812,0.217-1.381,0.648-1.701
				c0.438-0.32,1.137-0.48,2.096-0.48c1.02,0,1.729,0.16,2.141,0.48c0.406,0.32,0.609,0.889,0.609,1.701v0.829
				c0,0.845-0.215,1.417-0.635,1.724c-0.422,0.305-1.143,0.458-2.158,0.458C204.621,17.729,203.926,17.569,203.518,17.249z
				 M207.531,43.141c-0.494,0.511-1.117,0.765-1.877,0.765c-0.758,0-1.383-0.254-1.875-0.765c-0.494-0.509-0.74-1.145-0.74-1.897
				V23.226c0-0.756,0.246-1.39,0.74-1.898c0.492-0.508,1.117-0.763,1.875-0.763c0.76,0,1.381,0.255,1.877,0.763
				c0.492,0.512,0.738,1.146,0.738,1.898v18.018C208.271,41.999,208.025,42.633,207.531,43.141z"/>
		</g>
	</g>
</g>
</svg>
