<?xml version="1.0" encoding="UTF-8"?>
<svg xmlns="http://www.w3.org/2000/svg" xmlns:xlink="http://www.w3.org/1999/xlink" width="99pt" height="24pt" viewBox="0 0 99 24" version="1.1">
<defs>
<linearGradient id="linear0" gradientUnits="userSpaceOnUse" x1="230.9785" y1="-372.8154" x2="253.6123" y2="-372.8154" gradientTransform="matrix(0.436123,0,0,0.436364,-100.735989,178.464218)">
<stop offset="0" style="stop-color:rgb(3.137255%,60.784314%,85.490196%);stop-opacity:0.8;"/>
<stop offset="1" style="stop-color:rgb(3.137255%,60.784314%,85.490196%);stop-opacity:1;"/>
</linearGradient>
<linearGradient id="linear1" gradientUnits="userSpaceOnUse" x1="258.5645" y1="-372.8145" x2="281.4961" y2="-372.8145" gradientTransform="matrix(0.436123,0,0,0.436364,-100.735989,178.464218)">
<stop offset="0" style="stop-color:rgb(3.921569%,43.137255%,70.588235%);stop-opacity:0.8;"/>
<stop offset="1" style="stop-color:rgb(3.921569%,43.137255%,70.588235%);stop-opacity:1;"/>
</linearGradient>
<linearGradient id="linear2" gradientUnits="userSpaceOnUse" x1="234.0547" y1="-398.8945" x2="278.3584" y2="-398.8945" gradientTransform="matrix(0.436123,0,0,0.436364,-100.735989,178.464218)">
<stop offset="0" style="stop-color:rgb(48.627451%,80%,93.333333%);stop-opacity:0.8;"/>
<stop offset="1" style="stop-color:rgb(48.627451%,80%,93.333333%);stop-opacity:1;"/>
</linearGradient>
</defs>
<g id="surface1">
<path style=" stroke:none;fill-rule:nonzero;fill:url(#linear0);" d="M 9.867188 18.1875 C 9.867188 17.925781 9.683594 17.605469 9.460938 17.476562 L 6.167969 15.578125 C 5.941406 15.445312 5.757812 15.128906 5.757812 14.867188 L 5.757812 10.996094 C 5.757812 10.734375 5.574219 10.414062 5.347656 10.285156 L 0.410156 7.429688 C 0.183594 7.300781 0 7.40625 0 7.667969 L 0 18.195312 C 0 18.457031 0.183594 18.773438 0.410156 18.902344 L 9.460938 24.132812 C 9.6875 24.261719 9.871094 24.15625 9.871094 23.894531 Z M 9.867188 18.1875 "/>
<path style=" stroke:none;fill-rule:nonzero;fill:url(#linear1);" d="M 16.667969 10.300781 C 16.441406 10.429688 16.257812 10.746094 16.257812 11.007812 L 16.242188 14.8125 C 16.242188 15.070312 16.054688 15.390625 15.828125 15.519531 L 12.46875 17.441406 C 12.242188 17.570312 12.054688 17.886719 12.054688 18.148438 L 12.03125 23.859375 C 12.027344 24.117188 12.214844 24.226562 12.4375 24.097656 L 21.574219 18.871094 C 21.800781 18.742188 21.984375 18.425781 21.984375 18.164062 L 22.03125 7.703125 C 22.03125 7.445312 21.847656 7.335938 21.621094 7.464844 Z M 16.667969 10.300781 "/>
<path style=" stroke:none;fill-rule:nonzero;fill:url(#linear2);" d="M 6.4375 8.636719 C 6.664062 8.769531 7.03125 8.769531 7.257812 8.640625 L 10.558594 6.75 C 10.785156 6.621094 11.152344 6.625 11.378906 6.753906 L 14.722656 8.703125 C 14.945312 8.835938 15.316406 8.835938 15.539062 8.707031 L 20.492188 5.871094 C 20.71875 5.742188 20.71875 5.527344 20.496094 5.394531 L 11.402344 0.0976562 C 11.175781 -0.03125 10.808594 -0.03125 10.582031 0.0976562 L 1.511719 5.292969 C 1.285156 5.421875 1.285156 5.632812 1.507812 5.765625 Z M 6.4375 8.636719 "/>
<path style=" stroke:none;fill-rule:nonzero;fill:rgb(11.764706%,11.764706%,11.764706%);fill-opacity:1;" d="M 96.449219 5.070312 L 96.445312 7.945312 L 96.445312 9.164062 L 97.796875 9.164062 C 98.097656 9.164062 98.351562 9.265625 98.558594 9.46875 C 98.757812 9.671875 98.859375 9.925781 98.859375 10.230469 C 98.859375 10.523438 98.757812 10.765625 98.558594 10.960938 C 98.351562 11.160156 98.097656 11.257812 97.796875 11.257812 L 96.445312 11.257812 L 96.445312 16.417969 C 96.445312 16.683594 96.511719 16.878906 96.652344 16.996094 C 96.792969 17.117188 96.984375 17.179688 97.222656 17.179688 C 97.328125 17.179688 97.464844 17.152344 97.644531 17.101562 C 97.796875 17.039062 97.941406 17.007812 98.082031 17.007812 C 98.257812 17.007812 98.421875 17.089844 98.566406 17.265625 C 98.710938 17.4375 98.785156 17.660156 98.785156 17.941406 C 98.785156 18.28125 98.597656 18.570312 98.222656 18.804688 C 97.851562 19.039062 97.429688 19.160156 96.960938 19.160156 C 96.171875 19.160156 95.511719 18.988281 94.96875 18.65625 C 94.433594 18.320312 94.160156 17.605469 94.160156 16.515625 L 94.160156 11.257812 L 93.285156 11.257812 C 92.984375 11.257812 92.726562 11.15625 92.523438 10.953125 C 92.320312 10.753906 92.222656 10.496094 92.222656 10.195312 C 92.222656 9.902344 92.320312 9.65625 92.523438 9.460938 C 92.726562 9.261719 92.984375 9.164062 93.285156 9.164062 L 94.160156 9.164062 L 94.160156 6.230469 "/>
<path style=" stroke:none;fill-rule:nonzero;fill:rgb(11.764706%,11.764706%,11.764706%);fill-opacity:1;" d="M 30.007812 5.070312 L 30.003906 6.230469 L 30.003906 10.210938 C 30.308594 9.832031 30.734375 9.496094 31.28125 9.210938 C 31.824219 8.925781 32.398438 8.785156 32.992188 8.785156 C 33.867188 8.785156 34.660156 9.011719 35.371094 9.460938 C 36.082031 9.910156 36.644531 10.535156 37.054688 11.335938 C 37.464844 12.136719 37.671875 13.042969 37.671875 14.058594 C 37.671875 15.070312 37.46875 15.980469 37.0625 16.789062 C 36.65625 17.59375 36.101562 18.222656 35.402344 18.671875 C 34.695312 19.121094 33.917969 19.351562 33.070312 19.351562 C 32.460938 19.351562 31.886719 19.226562 31.347656 18.976562 C 30.808594 18.730469 30.359375 18.429688 30.007812 18.074219 L 30.007812 18.1875 C 30.007812 18.519531 29.898438 18.796875 29.683594 19.015625 C 29.46875 19.238281 29.195312 19.351562 28.863281 19.351562 C 28.535156 19.351562 28.261719 19.242188 28.046875 19.027344 C 27.832031 18.8125 27.722656 18.53125 27.722656 18.191406 L 27.722656 6.234375 M 34.703125 16.339844 C 35.222656 15.730469 35.484375 14.96875 35.484375 14.058594 C 35.484375 13.140625 35.226562 12.386719 34.714844 11.78125 C 34.199219 11.179688 33.53125 10.878906 32.707031 10.878906 C 31.878906 10.878906 31.207031 11.179688 30.6875 11.78125 C 30.167969 12.386719 29.910156 13.140625 29.910156 14.058594 C 29.910156 14.972656 30.167969 15.730469 30.6875 16.339844 C 31.207031 16.949219 31.878906 17.257812 32.707031 17.257812 C 33.519531 17.253906 34.183594 16.949219 34.703125 16.339844 Z M 34.703125 16.339844 "/>
<path style=" stroke:none;fill-rule:nonzero;fill:rgb(11.764706%,11.764706%,11.764706%);fill-opacity:1;" d="M 42.046875 5.070312 L 42.046875 17.996094 C 42.046875 18.328125 41.9375 18.605469 41.714844 18.824219 C 41.492188 19.046875 41.214844 19.160156 40.886719 19.160156 C 40.570312 19.160156 40.304688 19.046875 40.089844 18.824219 C 39.871094 18.601562 39.765625 18.324219 39.765625 17.996094 L 39.765625 6.230469 "/>
<path style=" stroke:none;fill-rule:nonzero;fill:rgb(11.764706%,11.764706%,11.764706%);fill-opacity:1;" d="M 53.617188 16.808594 C 53.160156 17.613281 52.535156 18.238281 51.742188 18.683594 C 50.949219 19.128906 50.078125 19.347656 49.125 19.347656 C 48.164062 19.347656 47.285156 19.125 46.5 18.683594 C 45.710938 18.238281 45.09375 17.613281 44.636719 16.808594 C 44.179688 16 43.953125 15.089844 43.953125 14.074219 C 43.953125 13.058594 44.179688 12.148438 44.636719 11.34375 C 45.09375 10.535156 45.714844 9.910156 46.5 9.457031 C 47.289062 9.007812 48.164062 8.78125 49.125 8.78125 C 50.078125 8.78125 50.949219 9.007812 51.742188 9.457031 C 52.535156 9.910156 53.160156 10.539062 53.617188 11.34375 C 54.074219 12.148438 54.300781 13.058594 54.300781 14.074219 C 54.300781 15.089844 54.074219 16 53.617188 16.808594 Z M 51.628906 12.410156 C 51.367188 11.921875 51.019531 11.542969 50.582031 11.277344 C 50.144531 11.011719 49.660156 10.875 49.128906 10.875 C 48.59375 10.875 48.109375 11.011719 47.671875 11.277344 C 47.234375 11.542969 46.882812 11.921875 46.625 12.410156 C 46.367188 12.898438 46.234375 13.453125 46.234375 14.074219 C 46.234375 14.695312 46.367188 15.246094 46.625 15.730469 C 46.886719 16.210938 47.234375 16.589844 47.671875 16.851562 C 48.109375 17.117188 48.59375 17.253906 49.128906 17.253906 C 49.660156 17.253906 50.144531 17.117188 50.582031 16.851562 C 51.019531 16.589844 51.371094 16.210938 51.628906 15.730469 C 51.886719 15.25 52.019531 14.695312 52.019531 14.074219 C 52.019531 13.453125 51.886719 12.898438 51.628906 12.410156 Z M 51.628906 12.410156 "/>
<path style=" stroke:none;fill-rule:nonzero;fill:rgb(11.764706%,11.764706%,11.764706%);fill-opacity:1;" d="M 63.246094 9.289062 C 63.90625 9.625 64.234375 10.070312 64.234375 10.628906 C 64.234375 10.910156 64.152344 11.152344 63.988281 11.363281 C 63.824219 11.570312 63.605469 11.679688 63.339844 11.679688 C 63.136719 11.679688 62.972656 11.648438 62.847656 11.59375 C 62.71875 11.535156 62.597656 11.457031 62.476562 11.363281 C 62.355469 11.269531 62.238281 11.191406 62.121094 11.125 C 61.996094 11.0625 61.808594 11.007812 61.5625 10.957031 C 61.316406 10.90625 61.113281 10.878906 60.960938 10.878906 C 60.007812 10.878906 59.265625 11.175781 58.726562 11.761719 C 58.1875 12.355469 57.917969 13.125 57.917969 14.078125 C 57.917969 14.992188 58.1875 15.75 58.734375 16.351562 C 59.28125 16.957031 59.976562 17.257812 60.828125 17.257812 C 61.449219 17.257812 61.910156 17.179688 62.21875 17.027344 C 62.292969 16.992188 62.398438 16.925781 62.53125 16.828125 C 62.667969 16.734375 62.789062 16.660156 62.902344 16.609375 C 63.019531 16.558594 63.15625 16.535156 63.324219 16.535156 C 63.640625 16.535156 63.890625 16.632812 64.074219 16.835938 C 64.257812 17.042969 64.351562 17.300781 64.351562 17.617188 C 64.351562 17.921875 64.171875 18.207031 63.820312 18.476562 C 63.464844 18.738281 62.992188 18.953125 62.410156 19.113281 C 61.824219 19.269531 61.203125 19.351562 60.546875 19.351562 C 59.570312 19.351562 58.710938 19.121094 57.96875 18.667969 C 57.226562 18.210938 56.652344 17.578125 56.246094 16.769531 C 55.84375 15.964844 55.636719 15.070312 55.636719 14.078125 C 55.636719 13.050781 55.851562 12.136719 56.277344 11.335938 C 56.703125 10.535156 57.296875 9.910156 58.054688 9.460938 C 58.816406 9.011719 59.679688 8.785156 60.644531 8.785156 C 61.714844 8.78125 62.585938 8.953125 63.246094 9.289062 Z M 63.246094 9.289062 "/>
<path style=" stroke:none;fill-rule:nonzero;fill:rgb(11.764706%,11.764706%,11.764706%);fill-opacity:1;" d="M 68.476562 5.070312 L 68.476562 13.277344 L 72.546875 9.335938 C 72.789062 9.09375 73.070312 8.976562 73.386719 8.976562 C 73.667969 8.976562 73.914062 9.09375 74.140625 9.328125 C 74.359375 9.5625 74.472656 9.800781 74.472656 10.042969 C 74.472656 10.347656 74.320312 10.632812 74.015625 10.898438 L 71.144531 13.546875 L 74.472656 17.164062 C 74.714844 17.417969 74.832031 17.703125 74.832031 18.019531 C 74.832031 18.335938 74.710938 18.601562 74.460938 18.816406 C 74.214844 19.035156 73.953125 19.140625 73.671875 19.140625 C 73.34375 19.140625 73.0625 19.015625 72.835938 18.761719 L 69.410156 15.144531 L 68.476562 16 L 68.476562 18 C 68.476562 18.332031 68.367188 18.609375 68.152344 18.828125 C 67.9375 19.050781 67.664062 19.160156 67.335938 19.160156 C 67.003906 19.160156 66.730469 19.050781 66.515625 18.828125 C 66.300781 18.605469 66.195312 18.328125 66.195312 18 L 66.195312 6.234375 "/>
<path style=" stroke:none;fill-rule:nonzero;fill:rgb(11.764706%,11.764706%,11.764706%);fill-opacity:1;" d="M 84.476562 9.460938 C 85.1875 9.910156 85.75 10.535156 86.160156 11.335938 C 86.570312 12.132812 86.777344 13.042969 86.777344 14.054688 C 86.777344 15.070312 86.574219 15.980469 86.167969 16.789062 C 85.761719 17.59375 85.207031 18.222656 84.503906 18.671875 C 83.800781 19.121094 83.023438 19.347656 82.175781 19.347656 C 81.566406 19.347656 80.992188 19.226562 80.453125 18.976562 C 79.914062 18.730469 79.464844 18.425781 79.113281 18.074219 L 79.113281 21.804688 C 79.113281 22.132812 79.003906 22.410156 78.789062 22.632812 C 78.574219 22.855469 78.300781 22.964844 77.972656 22.964844 C 77.640625 22.964844 77.367188 22.859375 77.152344 22.640625 C 76.9375 22.425781 76.828125 22.148438 76.828125 21.804688 L 76.828125 10.136719 C 76.828125 9.804688 76.9375 9.527344 77.152344 9.308594 C 77.367188 9.085938 77.640625 8.972656 77.972656 8.972656 C 78.300781 8.972656 78.574219 9.085938 78.789062 9.308594 C 79.003906 9.53125 79.113281 9.808594 79.113281 10.136719 L 79.113281 10.210938 C 79.414062 9.832031 79.84375 9.496094 80.386719 9.210938 C 80.933594 8.925781 81.503906 8.785156 82.101562 8.785156 C 82.976562 8.78125 83.765625 9.007812 84.476562 9.460938 Z M 83.8125 16.339844 C 84.332031 15.730469 84.589844 14.96875 84.589844 14.058594 C 84.589844 13.140625 84.335938 12.386719 83.820312 11.78125 C 83.304688 11.179688 82.636719 10.878906 81.8125 10.878906 C 80.988281 10.878906 80.316406 11.179688 79.796875 11.78125 C 79.277344 12.386719 79.015625 13.140625 79.015625 14.058594 C 79.015625 14.972656 79.277344 15.730469 79.796875 16.339844 C 80.316406 16.949219 80.988281 17.257812 81.8125 17.257812 C 82.625 17.253906 83.292969 16.949219 83.8125 16.339844 Z M 83.8125 16.339844 "/>
<path style=" stroke:none;fill-rule:nonzero;fill:rgb(11.764706%,11.764706%,11.764706%);fill-opacity:1;" d="M 88.757812 7.527344 C 88.582031 7.386719 88.496094 7.140625 88.496094 6.785156 L 88.496094 6.421875 C 88.496094 6.070312 88.589844 5.820312 88.777344 5.679688 C 88.96875 5.542969 89.273438 5.472656 89.691406 5.472656 C 90.136719 5.472656 90.445312 5.542969 90.625 5.679688 C 90.800781 5.820312 90.890625 6.070312 90.890625 6.421875 L 90.890625 6.785156 C 90.890625 7.152344 90.796875 7.402344 90.613281 7.539062 C 90.429688 7.671875 90.117188 7.738281 89.671875 7.738281 C 89.238281 7.734375 88.9375 7.667969 88.757812 7.527344 Z M 90.507812 18.824219 C 90.292969 19.046875 90.023438 19.160156 89.691406 19.160156 C 89.359375 19.160156 89.085938 19.046875 88.871094 18.824219 C 88.65625 18.601562 88.550781 18.324219 88.550781 17.996094 L 88.550781 10.136719 C 88.550781 9.804688 88.65625 9.527344 88.871094 9.308594 C 89.085938 9.085938 89.359375 8.972656 89.691406 8.972656 C 90.023438 8.972656 90.292969 9.085938 90.507812 9.308594 C 90.722656 9.53125 90.832031 9.808594 90.832031 10.136719 L 90.832031 17.996094 C 90.832031 18.328125 90.722656 18.601562 90.507812 18.824219 Z M 90.507812 18.824219 "/>
</g>
</svg>
