<?xml version="1.0" encoding="UTF-8"?>
<svg xmlns="http://www.w3.org/2000/svg" xmlns:xlink="http://www.w3.org/1999/xlink" width="202pt" height="49pt" viewBox="0 0 202 49" version="1.1">
<defs>
<linearGradient id="linear0" gradientUnits="userSpaceOnUse" x1="230.9785" y1="-372.8154" x2="253.6123" y2="-372.8154" gradientTransform="matrix(0.889868,0,0,0.890909,-205.542119,364.364445)">
<stop offset="0" style="stop-color:rgb(3.137255%,60.784314%,85.490196%);stop-opacity:0.8;"/>
<stop offset="1" style="stop-color:rgb(3.137255%,60.784314%,85.490196%);stop-opacity:1;"/>
</linearGradient>
<linearGradient id="linear1" gradientUnits="userSpaceOnUse" x1="258.5645" y1="-372.8145" x2="281.4961" y2="-372.8145" gradientTransform="matrix(0.889868,0,0,0.890909,-205.542119,364.364445)">
<stop offset="0" style="stop-color:rgb(3.921569%,43.137255%,70.588235%);stop-opacity:0.8;"/>
<stop offset="1" style="stop-color:rgb(3.921569%,43.137255%,70.588235%);stop-opacity:1;"/>
</linearGradient>
<linearGradient id="linear2" gradientUnits="userSpaceOnUse" x1="234.0547" y1="-398.8945" x2="278.3584" y2="-398.8945" gradientTransform="matrix(0.889868,0,0,0.890909,-205.542119,364.364445)">
<stop offset="0" style="stop-color:rgb(48.627451%,80%,93.333333%);stop-opacity:0.8;"/>
<stop offset="1" style="stop-color:rgb(48.627451%,80%,93.333333%);stop-opacity:1;"/>
</linearGradient>
</defs>
<g id="surface1">
<path style=" stroke:none;fill-rule:nonzero;fill:url(#linear0);" d="M 20.136719 37.132812 C 20.136719 36.597656 19.761719 35.949219 19.300781 35.683594 L 12.585938 31.804688 C 12.125 31.539062 11.75 30.882812 11.75 30.351562 L 11.75 22.449219 C 11.75 21.914062 11.371094 21.261719 10.914062 21 L 0.832031 15.171875 C 0.371094 14.90625 0 15.121094 0 15.652344 L 0 37.144531 C 0 37.679688 0.375 38.332031 0.832031 38.597656 L 19.304688 49.269531 C 19.765625 49.535156 20.140625 49.316406 20.140625 48.785156 Z M 20.136719 37.132812 "/>
<path style=" stroke:none;fill-rule:nonzero;fill:url(#linear1);" d="M 34.011719 21.027344 C 33.550781 21.292969 33.171875 21.941406 33.167969 22.476562 L 33.140625 30.242188 C 33.136719 30.773438 32.757812 31.421875 32.296875 31.6875 L 25.441406 35.605469 C 24.976562 35.871094 24.601562 36.519531 24.597656 37.054688 L 24.546875 48.710938 C 24.542969 49.242188 24.917969 49.460938 25.378906 49.199219 L 44.019531 38.527344 C 44.480469 38.265625 44.855469 37.617188 44.859375 37.085938 L 44.953125 15.730469 C 44.957031 15.195312 44.578125 14.980469 44.117188 15.242188 Z M 34.011719 21.027344 "/>
<path style=" stroke:none;fill-rule:nonzero;fill:url(#linear2);" d="M 13.140625 17.632812 C 13.601562 17.902344 14.351562 17.90625 14.8125 17.640625 L 21.546875 13.785156 C 22.007812 13.519531 22.757812 13.523438 23.21875 13.792969 L 30.039062 17.769531 C 30.496094 18.035156 31.246094 18.039062 31.710938 17.777344 L 41.8125 11.984375 C 42.273438 11.71875 42.277344 11.285156 41.816406 11.015625 L 23.265625 0.203125 C 22.804688 -0.0664062 22.054688 -0.0664062 21.59375 0.195312 L 3.082031 10.804688 C 2.621094 11.070312 2.621094 11.503906 3.078125 11.773438 Z M 13.140625 17.632812 "/>
<path style=" stroke:none;fill-rule:nonzero;fill:rgb(11.764706%,11.764706%,11.764706%);fill-opacity:1;" d="M 196.792969 10.351562 L 196.785156 16.222656 L 196.785156 18.710938 L 199.542969 18.710938 C 200.164062 18.710938 200.679688 18.917969 201.097656 19.332031 C 201.507812 19.746094 201.714844 20.265625 201.714844 20.882812 C 201.714844 21.480469 201.507812 21.980469 201.097656 22.382812 C 200.679688 22.785156 200.164062 22.988281 199.542969 22.988281 L 196.785156 22.988281 L 196.785156 33.519531 C 196.785156 34.058594 196.925781 34.460938 197.210938 34.703125 C 197.496094 34.949219 197.886719 35.070312 198.378906 35.070312 C 198.585938 35.070312 198.871094 35.019531 199.234375 34.917969 C 199.546875 34.785156 199.84375 34.722656 200.125 34.722656 C 200.488281 34.722656 200.816406 34.894531 201.113281 35.246094 C 201.410156 35.597656 201.5625 36.054688 201.5625 36.628906 C 201.5625 37.328125 201.179688 37.917969 200.417969 38.394531 C 199.65625 38.875 198.792969 39.117188 197.839844 39.117188 C 196.230469 39.117188 194.882812 38.769531 193.777344 38.085938 C 192.679688 37.398438 192.128906 35.945312 192.128906 33.714844 L 192.128906 22.988281 L 190.339844 22.988281 C 189.722656 22.988281 189.203125 22.78125 188.789062 22.367188 C 188.371094 21.953125 188.167969 21.433594 188.167969 20.8125 C 188.167969 20.214844 188.371094 19.714844 188.789062 19.316406 C 189.203125 18.914062 189.722656 18.710938 190.339844 18.710938 L 192.128906 18.710938 L 192.128906 12.722656 "/>
<path style=" stroke:none;fill-rule:nonzero;fill:rgb(11.764706%,11.764706%,11.764706%);fill-opacity:1;" d="M 61.226562 10.351562 L 61.222656 12.722656 L 61.222656 20.847656 C 61.84375 20.070312 62.710938 19.390625 63.824219 18.808594 C 64.9375 18.222656 66.101562 17.933594 67.320312 17.933594 C 69.105469 17.933594 70.722656 18.394531 72.171875 19.316406 C 73.621094 20.234375 74.765625 21.511719 75.605469 23.144531 C 76.445312 24.773438 76.867188 26.628906 76.867188 28.699219 C 76.867188 30.769531 76.453125 32.628906 75.625 34.277344 C 74.796875 35.925781 73.664062 37.207031 72.230469 38.125 C 70.796875 39.042969 69.210938 39.503906 67.472656 39.503906 C 66.230469 39.503906 65.058594 39.253906 63.960938 38.746094 C 62.863281 38.242188 61.945312 37.625 61.226562 36.898438 L 61.226562 37.136719 C 61.226562 37.808594 61.003906 38.375 60.566406 38.824219 C 60.125 39.28125 59.566406 39.507812 58.894531 39.507812 C 58.222656 39.507812 57.667969 39.289062 57.226562 38.847656 C 56.785156 38.40625 56.566406 37.835938 56.566406 37.136719 L 56.566406 12.726562 M 70.808594 33.363281 C 71.871094 32.117188 72.402344 30.5625 72.402344 28.699219 C 72.402344 26.832031 71.878906 25.285156 70.828125 24.054688 C 69.78125 22.824219 68.417969 22.210938 66.730469 22.210938 C 65.046875 22.210938 63.675781 22.824219 62.617188 24.054688 C 61.554688 25.285156 61.027344 26.832031 61.027344 28.699219 C 61.027344 30.566406 61.554688 32.121094 62.617188 33.363281 C 63.675781 34.605469 65.046875 35.230469 66.730469 35.230469 C 68.390625 35.226562 69.75 34.605469 70.808594 33.363281 Z M 70.808594 33.363281 "/>
<path style=" stroke:none;fill-rule:nonzero;fill:rgb(11.764706%,11.764706%,11.764706%);fill-opacity:1;" d="M 85.796875 10.351562 L 85.796875 36.742188 C 85.796875 37.417969 85.570312 37.984375 85.113281 38.433594 C 84.660156 38.886719 84.097656 39.117188 83.425781 39.117188 C 82.777344 39.117188 82.234375 38.886719 81.796875 38.433594 C 81.355469 37.980469 81.136719 37.414062 81.136719 36.742188 L 81.136719 12.722656 "/>
<path style=" stroke:none;fill-rule:nonzero;fill:rgb(11.764706%,11.764706%,11.764706%);fill-opacity:1;" d="M 109.398438 34.316406 C 108.46875 35.960938 107.195312 37.238281 105.574219 38.144531 C 103.960938 39.050781 102.179688 39.503906 100.238281 39.503906 C 98.269531 39.503906 96.484375 39.046875 94.878906 38.144531 C 93.273438 37.238281 92.007812 35.960938 91.074219 34.316406 C 90.144531 32.667969 89.679688 30.808594 89.679688 28.734375 C 89.679688 26.664062 90.144531 24.804688 91.074219 23.15625 C 92.007812 21.511719 93.277344 20.230469 94.878906 19.3125 C 96.484375 18.394531 98.273438 17.929688 100.238281 17.929688 C 102.179688 17.929688 103.960938 18.394531 105.574219 19.3125 C 107.191406 20.230469 108.46875 21.515625 109.398438 23.15625 C 110.332031 24.804688 110.796875 26.664062 110.796875 28.734375 C 110.800781 30.808594 110.332031 32.667969 109.398438 34.316406 Z M 105.339844 25.335938 C 104.808594 24.339844 104.097656 23.566406 103.207031 23.023438 C 102.316406 22.480469 101.328125 22.207031 100.238281 22.207031 C 99.152344 22.207031 98.164062 22.480469 97.269531 23.023438 C 96.375 23.566406 95.664062 24.339844 95.136719 25.335938 C 94.605469 26.332031 94.339844 27.46875 94.339844 28.734375 C 94.339844 30.007812 94.605469 31.128906 95.136719 32.117188 C 95.667969 33.101562 96.378906 33.867188 97.269531 34.40625 C 98.164062 34.953125 99.152344 35.226562 100.238281 35.226562 C 101.328125 35.226562 102.316406 34.953125 103.207031 34.40625 C 104.101562 33.867188 104.8125 33.101562 105.339844 32.117188 C 105.875 31.132812 106.140625 30.007812 106.140625 28.734375 C 106.140625 27.46875 105.875 26.335938 105.339844 25.335938 Z M 105.339844 25.335938 "/>
<path style=" stroke:none;fill-rule:nonzero;fill:rgb(11.764706%,11.764706%,11.764706%);fill-opacity:1;" d="M 129.046875 18.960938 C 130.390625 19.648438 131.066406 20.5625 131.066406 21.703125 C 131.066406 22.273438 130.894531 22.769531 130.558594 23.199219 C 130.226562 23.625 129.785156 23.84375 129.242188 23.84375 C 128.828125 23.84375 128.488281 23.785156 128.234375 23.667969 C 127.972656 23.550781 127.722656 23.394531 127.476562 23.203125 C 127.226562 23.007812 126.988281 22.851562 126.753906 22.71875 C 126.492188 22.589844 126.113281 22.472656 125.609375 22.367188 C 125.105469 22.265625 124.699219 22.210938 124.386719 22.210938 C 122.441406 22.210938 120.921875 22.8125 119.824219 24.015625 C 118.726562 25.222656 118.175781 26.796875 118.175781 28.742188 C 118.175781 30.605469 118.730469 32.15625 119.84375 33.386719 C 120.957031 34.617188 122.378906 35.234375 124.113281 35.234375 C 125.378906 35.234375 126.324219 35.074219 126.949219 34.769531 C 127.105469 34.6875 127.316406 34.554688 127.59375 34.359375 C 127.863281 34.164062 128.113281 34.015625 128.351562 33.910156 C 128.585938 33.808594 128.867188 33.753906 129.203125 33.753906 C 129.851562 33.753906 130.363281 33.960938 130.742188 34.375 C 131.113281 34.792969 131.300781 35.320312 131.300781 35.96875 C 131.300781 36.589844 130.941406 37.175781 130.214844 37.71875 C 129.488281 38.261719 128.53125 38.699219 127.34375 39.023438 C 126.148438 39.339844 124.882812 39.507812 123.539062 39.507812 C 121.546875 39.507812 119.792969 39.042969 118.28125 38.109375 C 116.765625 37.175781 115.59375 35.890625 114.765625 34.242188 C 113.941406 32.59375 113.523438 30.765625 113.523438 28.742188 C 113.523438 26.644531 113.957031 24.777344 114.828125 23.144531 C 115.695312 21.511719 116.90625 20.234375 118.457031 19.316406 C 120.007812 18.398438 121.769531 17.9375 123.738281 17.9375 C 125.925781 17.933594 127.699219 18.277344 129.046875 18.960938 Z M 129.046875 18.960938 "/>
<path style=" stroke:none;fill-rule:nonzero;fill:rgb(11.764706%,11.764706%,11.764706%);fill-opacity:1;" d="M 139.71875 10.351562 L 139.71875 27.105469 L 148.027344 19.0625 C 148.519531 18.570312 149.089844 18.324219 149.734375 18.324219 C 150.308594 18.324219 150.816406 18.566406 151.273438 19.042969 C 151.726562 19.523438 151.953125 20.011719 151.953125 20.503906 C 151.953125 21.125 151.640625 21.710938 151.019531 22.253906 L 145.160156 27.65625 L 151.953125 35.039062 C 152.445312 35.558594 152.691406 36.140625 152.691406 36.789062 C 152.691406 37.4375 152.441406 37.980469 151.929688 38.421875 C 151.429688 38.863281 150.890625 39.082031 150.320312 39.082031 C 149.648438 39.082031 149.078125 38.824219 148.613281 38.304688 L 141.621094 30.917969 L 139.71875 32.667969 L 139.71875 36.75 C 139.71875 37.425781 139.5 37.992188 139.058594 38.4375 C 138.621094 38.894531 138.066406 39.121094 137.390625 39.121094 C 136.714844 39.121094 136.160156 38.894531 135.722656 38.4375 C 135.28125 37.984375 135.0625 37.421875 135.0625 36.75 L 135.0625 12.726562 "/>
<path style=" stroke:none;fill-rule:nonzero;fill:rgb(11.764706%,11.764706%,11.764706%);fill-opacity:1;" d="M 172.371094 19.3125 C 173.816406 20.234375 174.964844 21.507812 175.800781 23.140625 C 176.640625 24.773438 177.0625 26.625 177.0625 28.699219 C 177.0625 30.769531 176.648438 32.628906 175.820312 34.277344 C 174.988281 35.921875 173.859375 37.203125 172.425781 38.125 C 170.992188 39.039062 169.402344 39.503906 167.667969 39.503906 C 166.425781 39.503906 165.253906 39.25 164.15625 38.742188 C 163.058594 38.238281 162.140625 37.621094 161.421875 36.898438 L 161.421875 44.515625 C 161.421875 45.191406 161.199219 45.753906 160.761719 46.207031 C 160.320312 46.660156 159.765625 46.886719 159.09375 46.886719 C 158.417969 46.886719 157.859375 46.667969 157.425781 46.226562 C 156.984375 45.789062 156.761719 45.214844 156.761719 44.515625 L 156.761719 20.691406 C 156.761719 20.019531 156.984375 19.453125 157.425781 19.003906 C 157.859375 18.546875 158.417969 18.320312 159.09375 18.320312 C 159.765625 18.320312 160.320312 18.546875 160.761719 19.003906 C 161.199219 19.457031 161.421875 20.023438 161.421875 20.691406 L 161.421875 20.847656 C 162.039062 20.070312 162.910156 19.390625 164.023438 18.808594 C 165.132812 18.222656 166.300781 17.933594 167.519531 17.933594 C 169.300781 17.933594 170.917969 18.394531 172.371094 19.3125 Z M 171.011719 33.363281 C 172.070312 32.117188 172.601562 30.5625 172.601562 28.699219 C 172.601562 26.832031 172.078125 25.285156 171.027344 24.054688 C 169.976562 22.824219 168.613281 22.210938 166.929688 22.210938 C 165.246094 22.210938 163.875 22.824219 162.816406 24.054688 C 161.757812 25.285156 161.226562 26.832031 161.226562 28.699219 C 161.226562 30.566406 161.757812 32.121094 162.816406 33.363281 C 163.875 34.605469 165.246094 35.230469 166.929688 35.230469 C 168.589844 35.226562 169.949219 34.605469 171.011719 33.363281 Z M 171.011719 33.363281 "/>
<path style=" stroke:none;fill-rule:nonzero;fill:rgb(11.764706%,11.764706%,11.764706%);fill-opacity:1;" d="M 181.105469 15.367188 C 180.742188 15.085938 180.566406 14.578125 180.566406 13.855469 L 180.566406 13.113281 C 180.566406 12.390625 180.757812 11.882812 181.140625 11.601562 C 181.53125 11.316406 182.152344 11.171875 183.007812 11.171875 C 183.914062 11.171875 184.546875 11.316406 184.914062 11.601562 C 185.273438 11.882812 185.453125 12.390625 185.453125 13.113281 L 185.453125 13.855469 C 185.453125 14.605469 185.261719 15.117188 184.890625 15.390625 C 184.515625 15.660156 183.871094 15.796875 182.96875 15.796875 C 182.085938 15.796875 181.46875 15.652344 181.105469 15.367188 Z M 184.675781 38.433594 C 184.234375 38.890625 183.679688 39.117188 183.003906 39.117188 C 182.332031 39.117188 181.773438 38.890625 181.335938 38.433594 C 180.898438 37.980469 180.679688 37.414062 180.679688 36.746094 L 180.679688 20.691406 C 180.679688 20.019531 180.898438 19.453125 181.335938 19 C 181.773438 18.546875 182.332031 18.320312 183.003906 18.320312 C 183.679688 18.320312 184.234375 18.546875 184.675781 19 C 185.113281 19.457031 185.332031 20.023438 185.332031 20.691406 L 185.332031 36.746094 C 185.332031 37.417969 185.113281 37.980469 184.675781 38.433594 Z M 184.675781 38.433594 "/>
</g>
</svg>
