<?xml version="1.0" encoding="UTF-8"?>
<svg xmlns="http://www.w3.org/2000/svg" xmlns:xlink="http://www.w3.org/1999/xlink" width="99pt" height="57pt" viewBox="0 0 99 57" version="1.1">
<g id="surface1">
<path style=" stroke:none;fill-rule:nonzero;fill:rgb(96.078431%,65.490196%,0%);fill-opacity:1;" d="M 11.136719 18.707031 C 11.683594 19 12.519531 19.328125 13.503906 19.328125 C 14.269531 19.328125 14.742188 19.074219 14.777344 18.414062 C 14.777344 17.832031 14.449219 17.574219 13.867188 17.355469 L 12.847656 16.953125 C 11.539062 16.441406 10.699219 15.601562 10.699219 14.105469 C 10.699219 12.203125 12.082031 11.179688 13.867188 11.179688 C 14.996094 11.179688 16.050781 11.4375 16.707031 11.765625 L 16.125 13.519531 C 15.652344 13.261719 14.703125 12.972656 13.976562 12.972656 C 13.320312 12.972656 12.882812 13.226562 12.882812 13.847656 C 12.882812 14.433594 13.210938 14.652344 13.867188 14.945312 L 15.140625 15.457031 C 16.34375 15.929688 17.070312 16.699219 17.070312 18.050781 C 17.070312 20.058594 15.652344 21.082031 13.539062 21.082031 C 12.230469 21.082031 11.101562 20.679688 10.554688 20.316406 Z M 11.136719 18.707031 "/>
<path style=" stroke:none;fill-rule:nonzero;fill:rgb(96.078431%,65.490196%,0%);fill-opacity:1;" d="M 18.527344 11.363281 L 24.785156 11.363281 L 24.785156 13.152344 L 20.710938 13.152344 L 20.710938 15.199219 L 23.476562 15.199219 L 23.476562 16.953125 L 20.710938 16.953125 L 20.710938 19.144531 L 25.042969 19.144531 L 25.042969 20.9375 L 18.527344 20.9375 Z M 18.527344 11.363281 "/>
<path style=" stroke:none;fill-rule:nonzero;fill:rgb(96.078431%,65.490196%,0%);fill-opacity:1;" d="M 26.496094 11.363281 L 32.757812 11.363281 L 32.757812 13.152344 L 28.644531 13.152344 L 28.644531 15.199219 L 31.410156 15.199219 L 31.410156 16.953125 L 28.644531 16.953125 L 28.644531 19.144531 L 32.976562 19.144531 L 32.976562 20.9375 L 26.496094 20.9375 Z M 26.496094 11.363281 "/>
<path style=" stroke:none;fill-rule:nonzero;fill:rgb(96.078431%,65.490196%,0%);fill-opacity:1;" d="M 34.429688 11.363281 L 36.578125 11.363281 L 36.578125 15.273438 L 39.925781 11.363281 L 42.476562 11.363281 L 42.476562 11.546875 L 38.835938 15.636719 L 42.367188 20.753906 L 42.367188 20.9375 L 39.820312 20.9375 L 37.308594 17.246094 L 36.542969 18.085938 L 36.542969 20.9375 L 34.394531 20.9375 L 34.394531 11.363281 Z M 34.429688 11.363281 "/>
<path style=" stroke:none;fill-rule:nonzero;fill:rgb(96.078431%,65.490196%,0%);fill-opacity:1;" d="M 45.96875 17.246094 L 42.914062 11.582031 L 42.914062 11.363281 L 45.207031 11.363281 L 47.132812 15.164062 L 49.027344 11.363281 L 51.210938 11.363281 L 51.210938 11.582031 L 48.152344 17.246094 L 48.152344 20.9375 L 46.007812 20.9375 L 46.007812 17.246094 Z M 45.96875 17.246094 "/>
<path style=" stroke:none;fill-rule:nonzero;fill:rgb(96.078431%,65.490196%,0%);fill-opacity:1;" d="M 51.394531 16.148438 C 51.394531 12.460938 53.285156 11.179688 55.394531 11.179688 C 57.6875 11.179688 59.398438 12.277344 59.398438 16.148438 C 59.398438 19.839844 57.507812 21.121094 55.394531 21.121094 C 53.101562 21.121094 51.394531 19.988281 51.394531 16.148438 Z M 57.179688 16.148438 C 57.179688 13.484375 56.597656 12.972656 55.394531 12.972656 C 54.160156 12.972656 53.613281 13.484375 53.613281 16.148438 C 53.613281 18.816406 54.195312 19.328125 55.394531 19.328125 C 56.632812 19.328125 57.179688 18.816406 57.179688 16.148438 Z M 57.179688 16.148438 "/>
<path style=" stroke:none;fill-rule:nonzero;fill:rgb(96.078431%,65.490196%,0%);fill-opacity:1;" d="M 60.929688 11.363281 L 63.113281 11.363281 L 63.113281 17.171875 C 63.113281 18.964844 63.550781 19.292969 64.675781 19.292969 C 65.769531 19.292969 66.207031 18.925781 66.207031 17.171875 L 66.207031 11.363281 L 68.390625 11.363281 L 68.390625 17.390625 C 68.390625 20.351562 66.679688 21.121094 64.675781 21.121094 C 62.53125 21.121094 60.929688 20.535156 60.929688 17.429688 Z M 60.929688 11.363281 "/>
<path style=" stroke:none;fill-rule:nonzero;fill:rgb(0%,0%,0%);fill-opacity:1;" d="M 11.136719 31.570312 C 11.683594 31.863281 12.519531 32.191406 13.503906 32.191406 C 14.269531 32.191406 14.742188 31.933594 14.777344 31.277344 C 14.777344 30.691406 14.449219 30.4375 13.867188 30.21875 L 12.847656 29.816406 C 11.539062 29.304688 10.699219 28.464844 10.699219 26.964844 C 10.699219 25.066406 12.082031 24.042969 13.867188 24.042969 C 14.996094 24.042969 16.050781 24.296875 16.707031 24.625 L 16.125 26.34375 C 15.652344 26.089844 14.703125 25.796875 13.976562 25.796875 C 13.320312 25.796875 12.882812 26.050781 12.882812 26.671875 C 12.882812 27.257812 13.210938 27.476562 13.867188 27.769531 L 15.140625 28.28125 C 16.34375 28.753906 17.070312 29.523438 17.070312 30.875 C 17.070312 32.882812 15.652344 33.90625 13.539062 33.90625 C 12.230469 33.90625 11.101562 33.503906 10.554688 33.140625 Z M 11.136719 31.570312 "/>
<path style=" stroke:none;fill-rule:nonzero;fill:rgb(0%,0%,0%);fill-opacity:1;" d="M 20.199219 26.015625 L 17.761719 26.015625 L 17.761719 24.1875 L 24.824219 24.1875 L 24.824219 26.015625 L 22.347656 26.015625 L 22.347656 33.796875 L 20.199219 33.796875 Z M 20.199219 26.015625 "/>
<path style=" stroke:none;fill-rule:nonzero;fill:rgb(0%,0%,0%);fill-opacity:1;" d="M 26.023438 24.226562 L 29.445312 24.226562 C 31.664062 24.226562 32.722656 25.320312 32.722656 27.332031 C 32.722656 28.644531 32.210938 29.558594 31.265625 30.035156 L 33.449219 33.578125 L 33.449219 33.796875 L 31.121094 33.796875 L 29.226562 30.398438 L 28.207031 30.398438 L 28.207031 33.796875 L 26.058594 33.796875 L 26.058594 24.226562 Z M 28.9375 28.644531 C 29.917969 28.644531 30.464844 28.425781 30.464844 27.332031 C 30.464844 26.234375 29.917969 26.015625 28.9375 26.015625 L 28.136719 26.015625 L 28.136719 28.644531 Z M 28.9375 28.644531 "/>
<path style=" stroke:none;fill-rule:nonzero;fill:rgb(0%,0%,0%);fill-opacity:1;" d="M 34.140625 33.617188 L 37.125 24.226562 L 39.710938 24.226562 L 42.695312 33.617188 L 42.695312 33.796875 L 40.472656 33.796875 L 39.890625 31.824219 L 36.761719 31.824219 L 36.179688 33.796875 L 34.105469 33.796875 L 34.105469 33.617188 Z M 39.382812 30.070312 L 38.324219 26.527344 L 37.269531 30.070312 Z M 39.382812 30.070312 "/>
<path style=" stroke:none;fill-rule:nonzero;fill:rgb(0%,0%,0%);fill-opacity:1;" d="M 44.621094 26.015625 L 42.183594 26.015625 L 42.183594 24.1875 L 49.246094 24.1875 L 49.246094 26.015625 L 46.769531 26.015625 L 46.769531 33.796875 L 44.621094 33.796875 Z M 44.621094 26.015625 "/>
<path style=" stroke:none;fill-rule:nonzero;fill:rgb(0%,0%,0%);fill-opacity:1;" d="M 50.445312 24.226562 L 56.707031 24.226562 L 56.707031 26.015625 L 52.59375 26.015625 L 52.59375 28.0625 L 55.359375 28.0625 L 55.359375 29.816406 L 52.59375 29.816406 L 52.59375 32.007812 L 56.925781 32.007812 L 56.925781 33.796875 L 50.445312 33.796875 Z M 50.445312 24.226562 "/>
<path style=" stroke:none;fill-rule:nonzero;fill:rgb(0%,0%,0%);fill-opacity:1;" d="M 57.835938 29.011719 C 57.835938 25.210938 59.910156 24.042969 62.058594 24.042969 C 63.257812 24.042969 64.058594 24.226562 64.824219 24.664062 L 64.203125 26.34375 C 63.621094 26.015625 62.96875 25.832031 62.128906 25.832031 C 60.78125 25.832031 60.019531 26.34375 60.019531 28.976562 C 60.019531 31.570312 60.746094 32.117188 61.984375 32.117188 C 62.53125 32.117188 62.96875 32.007812 63.292969 31.863281 L 63.292969 30.21875 L 62.058594 30.21875 L 62.058594 28.644531 L 65.367188 28.644531 L 65.367188 33.871094 L 63.769531 33.871094 L 63.621094 33.214844 C 63.222656 33.617188 62.492188 33.945312 61.730469 33.945312 C 59.328125 33.945312 57.835938 32.664062 57.835938 29.011719 Z M 57.835938 29.011719 "/>
<path style=" stroke:none;fill-rule:nonzero;fill:rgb(0%,0%,0%);fill-opacity:1;" d="M 69.082031 30.109375 L 66.023438 24.445312 L 66.023438 24.226562 L 68.28125 24.226562 L 70.210938 28.023438 L 72.101562 24.226562 L 74.285156 24.226562 L 74.285156 24.445312 L 71.230469 30.109375 L 71.230469 33.796875 L 69.082031 33.796875 Z M 69.082031 30.109375 "/>
<path style=" stroke:none;fill-rule:nonzero;fill:rgb(0%,0%,0%);fill-opacity:1;" d="M 11.066406 41.875 C 11.066406 38.328125 12.558594 36.976562 14.777344 36.976562 C 15.761719 36.976562 16.523438 37.269531 17.105469 37.671875 L 16.851562 38.074219 C 16.195312 37.671875 15.578125 37.453125 14.777344 37.453125 C 12.8125 37.453125 11.574219 38.546875 11.574219 41.875 C 11.574219 44.980469 12.773438 46.292969 14.742188 46.292969 C 15.652344 46.292969 16.304688 46.074219 17.035156 45.527344 L 17.253906 45.890625 C 16.667969 46.402344 15.832031 46.769531 14.703125 46.769531 C 12.59375 46.769531 11.066406 45.34375 11.066406 41.875 Z M 11.066406 41.875 "/>
<path style=" stroke:none;fill-rule:nonzero;fill:rgb(0%,0%,0%);fill-opacity:1;" d="M 18.378906 41.875 C 18.378906 38.21875 19.835938 36.976562 21.839844 36.976562 C 23.875 36.976562 25.296875 38.21875 25.296875 41.875 C 25.296875 45.527344 23.839844 46.769531 21.839844 46.769531 C 19.800781 46.769531 18.378906 45.492188 18.378906 41.875 Z M 24.785156 41.875 C 24.785156 38.804688 23.765625 37.453125 21.839844 37.453125 C 19.871094 37.453125 18.890625 38.804688 18.890625 41.875 C 18.890625 44.941406 19.910156 46.292969 21.839844 46.292969 C 23.804688 46.292969 24.785156 44.941406 24.785156 41.875 Z M 24.785156 41.875 "/>
<path style=" stroke:none;fill-rule:nonzero;fill:rgb(0%,0%,0%);fill-opacity:1;" d="M 27.550781 37.050781 L 28.242188 37.050781 L 33.414062 45.964844 L 33.414062 37.050781 L 33.886719 37.050781 L 33.886719 46.625 L 33.304688 46.625 L 28.027344 37.597656 L 28.027344 46.625 L 27.550781 46.625 Z M 27.550781 37.050781 "/>
<path style=" stroke:none;fill-rule:nonzero;fill:rgb(0%,0%,0%);fill-opacity:1;" d="M 35.886719 45.527344 C 36.433594 45.855469 37.125 46.292969 38.21875 46.292969 C 39.453125 46.292969 40.4375 45.636719 40.4375 44.25 C 40.4375 43.003906 39.890625 42.605469 38.761719 42.203125 L 38 41.945312 C 36.652344 41.472656 35.886719 40.777344 35.886719 39.386719 C 35.886719 37.78125 36.980469 36.976562 38.433594 36.976562 C 39.34375 36.976562 40.109375 37.269531 40.65625 37.597656 L 40.4375 38.074219 C 39.925781 37.78125 39.164062 37.488281 38.324219 37.488281 C 37.160156 37.488281 36.359375 38.109375 36.359375 39.316406 C 36.359375 40.410156 36.90625 40.996094 38 41.398438 L 39.054688 41.800781 C 40.402344 42.273438 40.945312 42.96875 40.945312 44.210938 C 40.945312 45.78125 39.964844 46.804688 38.144531 46.804688 C 37.125 46.804688 36.25 46.476562 35.632812 46 Z M 35.886719 45.527344 "/>
<path style=" stroke:none;fill-rule:nonzero;fill:rgb(0%,0%,0%);fill-opacity:1;" d="M 42.804688 37.050781 L 43.3125 37.050781 L 43.3125 42.75 C 43.3125 45.5625 44.003906 46.292969 45.824219 46.292969 C 47.679688 46.292969 48.335938 45.527344 48.335938 42.714844 L 48.335938 37.125 L 48.84375 37.125 L 48.84375 42.75 C 48.84375 45.601562 48.082031 46.734375 45.824219 46.734375 C 43.53125 46.734375 42.804688 45.671875 42.804688 42.824219 Z M 42.804688 37.050781 "/>
<path style=" stroke:none;fill-rule:nonzero;fill:rgb(0%,0%,0%);fill-opacity:1;" d="M 51.464844 37.050781 L 51.976562 37.050781 L 51.976562 46.148438 L 56.269531 46.148438 L 56.269531 46.625 L 51.464844 46.625 Z M 51.464844 37.050781 "/>
<path style=" stroke:none;fill-rule:nonzero;fill:rgb(0%,0%,0%);fill-opacity:1;" d="M 58.636719 37.523438 L 55.871094 37.523438 L 55.871094 37.050781 L 61.910156 37.050781 L 61.910156 37.523438 L 59.109375 37.523438 L 59.109375 46.625 L 58.597656 46.625 L 58.597656 37.523438 Z M 58.636719 37.523438 "/>
<path style=" stroke:none;fill-rule:nonzero;fill:rgb(0%,0%,0%);fill-opacity:1;" d="M 61.65625 46.550781 L 64.714844 37.050781 L 65.40625 37.050781 L 68.460938 46.550781 L 68.460938 46.660156 L 67.953125 46.660156 L 66.933594 43.589844 L 63.148438 43.589844 L 62.167969 46.660156 L 61.65625 46.660156 Z M 66.789062 43.078125 L 65.042969 37.597656 L 63.292969 43.078125 Z M 66.789062 43.078125 "/>
<path style=" stroke:none;fill-rule:nonzero;fill:rgb(0%,0%,0%);fill-opacity:1;" d="M 70.28125 37.050781 L 70.972656 37.050781 L 76.144531 45.964844 L 76.144531 37.050781 L 76.617188 37.050781 L 76.617188 46.625 L 76.070312 46.625 L 70.792969 37.597656 L 70.792969 46.625 L 70.320312 46.625 L 70.320312 37.050781 Z M 70.28125 37.050781 "/>
<path style=" stroke:none;fill-rule:nonzero;fill:rgb(0%,0%,0%);fill-opacity:1;" d="M 78.871094 41.875 C 78.871094 38.328125 80.363281 36.976562 82.585938 36.976562 C 83.566406 36.976562 84.332031 37.269531 84.914062 37.671875 L 84.660156 38.074219 C 84.003906 37.671875 83.386719 37.453125 82.585938 37.453125 C 80.621094 37.453125 79.382812 38.546875 79.382812 41.875 C 79.382812 44.980469 80.582031 46.292969 82.546875 46.292969 C 83.457031 46.292969 84.113281 46.074219 84.839844 45.527344 L 85.097656 45.890625 C 84.515625 46.402344 83.675781 46.769531 82.546875 46.769531 C 80.363281 46.769531 78.871094 45.34375 78.871094 41.875 Z M 78.871094 41.875 "/>
<path style=" stroke:none;fill-rule:nonzero;fill:rgb(0%,0%,0%);fill-opacity:1;" d="M 89.246094 42.714844 L 86.152344 37.160156 L 86.152344 37.050781 L 86.660156 37.050781 L 89.535156 42.164062 L 92.304688 37.050781 L 92.8125 37.050781 L 92.8125 37.160156 L 89.753906 42.714844 L 89.753906 46.660156 L 89.246094 46.660156 Z M 89.246094 42.714844 "/>
<path style=" stroke:none;fill-rule:nonzero;fill:rgb(0%,0%,0%);fill-opacity:1;" d="M 5.132812 5.625 L 5.570312 5.625 L 5.570312 53.273438 L 5.132812 53.273438 Z M 5.132812 5.625 "/>
</g>
</svg>
