<?xml version="1.0" encoding="UTF-8"?>
<svg xmlns="http://www.w3.org/2000/svg" xmlns:xlink="http://www.w3.org/1999/xlink" width="200pt" height="115pt" viewBox="0 0 200 115" version="1.1">
<g id="surface1">
<path style=" stroke:none;fill-rule:nonzero;fill:rgb(96.078431%,65.490196%,0%);fill-opacity:1;" d="M 22.5 37.742188 C 23.601562 38.332031 25.292969 38.996094 27.28125 38.996094 C 28.824219 38.996094 29.78125 38.480469 29.851562 37.152344 C 29.851562 35.972656 29.191406 35.457031 28.015625 35.015625 L 25.957031 34.207031 C 23.308594 33.171875 21.617188 31.476562 21.617188 28.457031 C 21.617188 24.621094 24.410156 22.558594 28.015625 22.558594 C 30.292969 22.558594 32.425781 23.074219 33.75 23.738281 L 32.574219 27.277344 C 31.617188 26.757812 29.707031 26.167969 28.234375 26.167969 C 26.910156 26.167969 26.03125 26.6875 26.03125 27.9375 C 26.03125 29.117188 26.691406 29.5625 28.015625 30.152344 L 30.589844 31.183594 C 33.015625 32.140625 34.484375 33.6875 34.484375 36.417969 C 34.484375 40.472656 31.617188 42.535156 27.351562 42.535156 C 24.707031 42.535156 22.425781 41.722656 21.324219 40.988281 Z M 22.5 37.742188 "/>
<path style=" stroke:none;fill-rule:nonzero;fill:rgb(96.078431%,65.490196%,0%);fill-opacity:1;" d="M 37.425781 22.925781 L 50.074219 22.925781 L 50.074219 26.539062 L 41.839844 26.539062 L 41.839844 30.667969 L 47.425781 30.667969 L 47.425781 34.207031 L 41.839844 34.207031 L 41.839844 38.628906 L 50.589844 38.628906 L 50.589844 42.242188 L 37.425781 42.242188 Z M 37.425781 22.925781 "/>
<path style=" stroke:none;fill-rule:nonzero;fill:rgb(96.078431%,65.490196%,0%);fill-opacity:1;" d="M 53.53125 22.925781 L 66.175781 22.925781 L 66.175781 26.539062 L 57.867188 26.539062 L 57.867188 30.667969 L 63.457031 30.667969 L 63.457031 34.207031 L 57.867188 34.207031 L 57.867188 38.628906 L 66.617188 38.628906 L 66.617188 42.242188 L 53.53125 42.242188 Z M 53.53125 22.925781 "/>
<path style=" stroke:none;fill-rule:nonzero;fill:rgb(96.078431%,65.490196%,0%);fill-opacity:1;" d="M 69.558594 22.925781 L 73.898438 22.925781 L 73.898438 30.8125 L 80.660156 22.925781 L 85.808594 22.925781 L 85.808594 23.292969 L 78.457031 31.550781 L 85.589844 41.871094 L 85.589844 42.242188 L 80.441406 42.242188 L 75.367188 34.792969 L 73.824219 36.492188 L 73.824219 42.242188 L 69.484375 42.242188 L 69.484375 22.925781 Z M 69.558594 22.925781 "/>
<path style=" stroke:none;fill-rule:nonzero;fill:rgb(96.078431%,65.490196%,0%);fill-opacity:1;" d="M 92.867188 34.792969 L 86.691406 23.367188 L 86.691406 22.925781 L 91.324219 22.925781 L 95.21875 30.59375 L 99.042969 22.925781 L 103.457031 22.925781 L 103.457031 23.367188 L 97.28125 34.792969 L 97.28125 42.242188 L 92.941406 42.242188 L 92.941406 34.792969 Z M 92.867188 34.792969 "/>
<path style=" stroke:none;fill-rule:nonzero;fill:rgb(96.078431%,65.490196%,0%);fill-opacity:1;" d="M 103.824219 32.582031 C 103.824219 25.136719 107.648438 22.558594 111.910156 22.558594 C 116.542969 22.558594 120 24.769531 120 32.582031 C 120 40.027344 116.175781 42.609375 111.910156 42.609375 C 107.28125 42.609375 103.824219 40.324219 103.824219 32.582031 Z M 115.515625 32.582031 C 115.515625 27.203125 114.339844 26.167969 111.910156 26.167969 C 109.410156 26.167969 108.308594 27.203125 108.308594 32.582031 C 108.308594 37.964844 109.484375 38.996094 111.910156 38.996094 C 114.410156 38.996094 115.515625 37.964844 115.515625 32.582031 Z M 115.515625 32.582031 "/>
<path style=" stroke:none;fill-rule:nonzero;fill:rgb(96.078431%,65.490196%,0%);fill-opacity:1;" d="M 123.089844 22.925781 L 127.5 22.925781 L 127.5 34.648438 C 127.5 38.257812 128.382812 38.921875 130.660156 38.921875 C 132.867188 38.921875 133.75 38.1875 133.75 34.648438 L 133.75 22.925781 L 138.160156 22.925781 L 138.160156 35.089844 C 138.160156 41.0625 134.707031 42.609375 130.660156 42.609375 C 126.324219 42.609375 123.089844 41.429688 123.089844 35.164062 Z M 123.089844 22.925781 "/>
<path style=" stroke:none;fill-rule:nonzero;fill:rgb(0%,0%,0%);fill-opacity:1;" d="M 22.5 63.691406 C 23.601562 64.28125 25.292969 64.945312 27.28125 64.945312 C 28.824219 64.945312 29.78125 64.429688 29.851562 63.101562 C 29.851562 61.921875 29.191406 61.40625 28.015625 60.964844 L 25.957031 60.152344 C 23.308594 59.121094 21.617188 57.425781 21.617188 54.402344 C 21.617188 50.570312 24.410156 48.507812 28.015625 48.507812 C 30.292969 48.507812 32.425781 49.023438 33.75 49.6875 L 32.574219 53.152344 C 31.617188 52.632812 29.707031 52.042969 28.234375 52.042969 C 26.910156 52.042969 26.03125 52.5625 26.03125 53.8125 C 26.03125 54.992188 26.691406 55.4375 28.015625 56.027344 L 30.589844 57.058594 C 33.015625 58.015625 34.484375 59.5625 34.484375 62.292969 C 34.484375 66.347656 31.617188 68.410156 27.351562 68.410156 C 24.707031 68.410156 22.425781 67.597656 21.324219 66.863281 Z M 22.5 63.691406 "/>
<path style=" stroke:none;fill-rule:nonzero;fill:rgb(0%,0%,0%);fill-opacity:1;" d="M 40.808594 52.488281 L 35.882812 52.488281 L 35.882812 48.800781 L 50.148438 48.800781 L 50.148438 52.488281 L 45.148438 52.488281 L 45.148438 68.1875 L 40.808594 68.1875 Z M 40.808594 52.488281 "/>
<path style=" stroke:none;fill-rule:nonzero;fill:rgb(0%,0%,0%);fill-opacity:1;" d="M 52.574219 48.875 L 59.484375 48.875 C 63.96875 48.875 66.101562 51.085938 66.101562 55.140625 C 66.101562 57.792969 65.074219 59.636719 63.160156 60.597656 L 67.574219 67.746094 L 67.574219 68.1875 L 62.867188 68.1875 L 59.042969 61.332031 L 56.984375 61.332031 L 56.984375 68.1875 L 52.648438 68.1875 L 52.648438 48.875 Z M 58.457031 57.792969 C 60.441406 57.792969 61.542969 57.351562 61.542969 55.140625 C 61.542969 52.929688 60.441406 52.488281 58.457031 52.488281 L 56.839844 52.488281 L 56.839844 57.792969 Z M 58.457031 57.792969 "/>
<path style=" stroke:none;fill-rule:nonzero;fill:rgb(0%,0%,0%);fill-opacity:1;" d="M 68.96875 67.820312 L 75 48.875 L 80.21875 48.875 L 86.25 67.820312 L 86.25 68.1875 L 81.765625 68.1875 L 80.589844 64.207031 L 74.265625 64.207031 L 73.089844 68.1875 L 68.898438 68.1875 L 68.898438 67.820312 Z M 79.558594 60.667969 L 77.425781 53.519531 L 75.292969 60.667969 Z M 79.558594 60.667969 "/>
<path style=" stroke:none;fill-rule:nonzero;fill:rgb(0%,0%,0%);fill-opacity:1;" d="M 90.148438 52.488281 L 85.21875 52.488281 L 85.21875 48.800781 L 99.484375 48.800781 L 99.484375 52.488281 L 94.484375 52.488281 L 94.484375 68.1875 L 90.148438 68.1875 Z M 90.148438 52.488281 "/>
<path style=" stroke:none;fill-rule:nonzero;fill:rgb(0%,0%,0%);fill-opacity:1;" d="M 101.910156 48.875 L 114.558594 48.875 L 114.558594 52.488281 L 106.25 52.488281 L 106.25 56.617188 L 111.839844 56.617188 L 111.839844 60.152344 L 106.25 60.152344 L 106.25 64.578125 L 115 64.578125 L 115 68.1875 L 101.910156 68.1875 Z M 101.910156 48.875 "/>
<path style=" stroke:none;fill-rule:nonzero;fill:rgb(0%,0%,0%);fill-opacity:1;" d="M 116.839844 58.53125 C 116.839844 50.867188 121.03125 48.507812 125.367188 48.507812 C 127.792969 48.507812 129.410156 48.875 130.957031 49.757812 L 129.707031 53.152344 C 128.53125 52.488281 127.207031 52.117188 125.515625 52.117188 C 122.792969 52.117188 121.25 53.152344 121.25 58.457031 C 121.25 63.691406 122.71875 64.796875 125.21875 64.796875 C 126.324219 64.796875 127.207031 64.578125 127.867188 64.28125 L 127.867188 60.964844 L 125.367188 60.964844 L 125.367188 57.792969 L 132.058594 57.792969 L 132.058594 68.335938 L 128.824219 68.335938 L 128.53125 67.007812 C 127.71875 67.820312 126.25 68.484375 124.707031 68.484375 C 119.851562 68.484375 116.839844 65.902344 116.839844 58.53125 Z M 116.839844 58.53125 "/>
<path style=" stroke:none;fill-rule:nonzero;fill:rgb(0%,0%,0%);fill-opacity:1;" d="M 139.558594 60.742188 L 133.382812 49.316406 L 133.382812 48.875 L 137.941406 48.875 L 141.839844 56.542969 L 145.660156 48.875 L 150.074219 48.875 L 150.074219 49.316406 L 143.898438 60.742188 L 143.898438 68.1875 L 139.558594 68.1875 Z M 139.558594 60.742188 "/>
<path style=" stroke:none;fill-rule:nonzero;fill:rgb(0%,0%,0%);fill-opacity:1;" d="M 22.351562 84.480469 C 22.351562 77.332031 25.367188 74.601562 29.851562 74.601562 C 31.839844 74.601562 33.382812 75.191406 34.558594 76.003906 L 34.042969 76.8125 C 32.71875 76.003906 31.46875 75.5625 29.851562 75.5625 C 25.882812 75.5625 23.382812 77.773438 23.382812 84.480469 C 23.382812 90.746094 25.808594 93.402344 29.78125 93.402344 C 31.617188 93.402344 32.941406 92.957031 34.410156 91.851562 L 34.851562 92.589844 C 33.675781 93.621094 31.984375 94.359375 29.707031 94.359375 C 25.441406 94.359375 22.351562 91.484375 22.351562 84.480469 Z M 22.351562 84.480469 "/>
<path style=" stroke:none;fill-rule:nonzero;fill:rgb(0%,0%,0%);fill-opacity:1;" d="M 37.132812 84.480469 C 37.132812 77.109375 40.074219 74.601562 44.117188 74.601562 C 48.234375 74.601562 51.101562 77.109375 51.101562 84.480469 C 51.101562 91.851562 48.160156 94.359375 44.117188 94.359375 C 40 94.359375 37.132812 91.777344 37.132812 84.480469 Z M 50.074219 84.480469 C 50.074219 78.289062 48.015625 75.5625 44.117188 75.5625 C 40.148438 75.5625 38.160156 78.289062 38.160156 84.480469 C 38.160156 90.671875 40.21875 93.402344 44.117188 93.402344 C 48.089844 93.402344 50.074219 90.671875 50.074219 84.480469 Z M 50.074219 84.480469 "/>
<path style=" stroke:none;fill-rule:nonzero;fill:rgb(0%,0%,0%);fill-opacity:1;" d="M 55.660156 74.75 L 57.058594 74.75 L 67.5 92.738281 L 67.5 74.75 L 68.457031 74.75 L 68.457031 94.0625 L 67.28125 94.0625 L 56.617188 75.855469 L 56.617188 94.0625 L 55.660156 94.0625 Z M 55.660156 74.75 "/>
<path style=" stroke:none;fill-rule:nonzero;fill:rgb(0%,0%,0%);fill-opacity:1;" d="M 72.5 91.851562 C 73.601562 92.515625 75 93.402344 77.207031 93.402344 C 79.707031 93.402344 81.691406 92.074219 81.691406 89.273438 C 81.691406 86.765625 80.589844 85.957031 78.308594 85.144531 L 76.765625 84.628906 C 74.042969 83.667969 72.5 82.269531 72.5 79.46875 C 72.5 76.222656 74.707031 74.601562 77.648438 74.601562 C 79.484375 74.601562 81.03125 75.191406 82.132812 75.855469 L 81.691406 76.8125 C 80.660156 76.222656 79.117188 75.632812 77.425781 75.632812 C 75.074219 75.632812 73.457031 76.886719 73.457031 79.320312 C 73.457031 81.53125 74.558594 82.710938 76.765625 83.523438 L 78.898438 84.332031 C 81.617188 85.292969 82.71875 86.691406 82.71875 89.199219 C 82.71875 92.367188 80.734375 94.433594 77.058594 94.433594 C 75 94.433594 73.234375 93.769531 71.984375 92.8125 Z M 72.5 91.851562 "/>
<path style=" stroke:none;fill-rule:nonzero;fill:rgb(0%,0%,0%);fill-opacity:1;" d="M 86.46875 74.75 L 87.5 74.75 L 87.5 86.25 C 87.5 91.925781 88.898438 93.402344 92.574219 93.402344 C 96.324219 93.402344 97.648438 91.851562 97.648438 86.175781 L 97.648438 74.898438 L 98.675781 74.898438 L 98.675781 86.25 C 98.675781 92 97.132812 94.285156 92.574219 94.285156 C 87.941406 94.285156 86.46875 92.148438 86.46875 86.398438 Z M 86.46875 74.75 "/>
<path style=" stroke:none;fill-rule:nonzero;fill:rgb(0%,0%,0%);fill-opacity:1;" d="M 103.96875 74.75 L 105 74.75 L 105 93.105469 L 113.675781 93.105469 L 113.675781 94.0625 L 103.96875 94.0625 Z M 103.96875 74.75 "/>
<path style=" stroke:none;fill-rule:nonzero;fill:rgb(0%,0%,0%);fill-opacity:1;" d="M 118.457031 75.707031 L 112.867188 75.707031 L 112.867188 74.75 L 125.074219 74.75 L 125.074219 75.707031 L 119.410156 75.707031 L 119.410156 94.0625 L 118.382812 94.0625 L 118.382812 75.707031 Z M 118.457031 75.707031 "/>
<path style=" stroke:none;fill-rule:nonzero;fill:rgb(0%,0%,0%);fill-opacity:1;" d="M 124.558594 93.917969 L 130.734375 74.75 L 132.132812 74.75 L 138.308594 93.917969 L 138.308594 94.136719 L 137.28125 94.136719 L 135.21875 87.945312 L 127.574219 87.945312 L 125.589844 94.136719 L 124.558594 94.136719 Z M 134.925781 86.914062 L 131.398438 75.855469 L 127.867188 86.914062 Z M 134.925781 86.914062 "/>
<path style=" stroke:none;fill-rule:nonzero;fill:rgb(0%,0%,0%);fill-opacity:1;" d="M 141.984375 74.75 L 143.382812 74.75 L 153.824219 92.738281 L 153.824219 74.75 L 154.78125 74.75 L 154.78125 94.0625 L 153.675781 94.0625 L 143.015625 75.855469 L 143.015625 94.0625 L 142.058594 94.0625 L 142.058594 74.75 Z M 141.984375 74.75 "/>
<path style=" stroke:none;fill-rule:nonzero;fill:rgb(0%,0%,0%);fill-opacity:1;" d="M 159.339844 84.480469 C 159.339844 77.332031 162.351562 74.601562 166.839844 74.601562 C 168.824219 74.601562 170.367188 75.191406 171.542969 76.003906 L 171.03125 76.8125 C 169.707031 76.003906 168.457031 75.5625 166.839844 75.5625 C 162.867188 75.5625 160.367188 77.773438 160.367188 84.480469 C 160.367188 90.746094 162.792969 93.402344 166.765625 93.402344 C 168.601562 93.402344 169.925781 92.957031 171.398438 91.851562 L 171.910156 92.589844 C 170.734375 93.621094 169.042969 94.359375 166.765625 94.359375 C 162.351562 94.359375 159.339844 91.484375 159.339844 84.480469 Z M 159.339844 84.480469 "/>
<path style=" stroke:none;fill-rule:nonzero;fill:rgb(0%,0%,0%);fill-opacity:1;" d="M 180.292969 86.175781 L 174.042969 74.972656 L 174.042969 74.75 L 175.074219 74.75 L 180.882812 85.070312 L 186.46875 74.75 L 187.5 74.75 L 187.5 74.972656 L 181.324219 86.175781 L 181.324219 94.136719 L 180.292969 94.136719 Z M 180.292969 86.175781 "/>
<path style=" stroke:none;fill-rule:nonzero;fill:rgb(0%,0%,0%);fill-opacity:1;" d="M 10.367188 11.351562 L 11.25 11.351562 L 11.25 107.480469 L 10.367188 107.480469 Z M 10.367188 11.351562 "/>
</g>
</svg>
