<?xml version="1.0" encoding="utf-8"?>
<!-- Generator: Adobe Illustrator 21.0.0, SVG Export Plug-In . SVG Version: 6.00 Build 0)  -->
<svg version="1.1" id="Ebene_1" xmlns="http://www.w3.org/2000/svg" xmlns:xlink="http://www.w3.org/1999/xlink" x="0px" y="0px"
	 viewBox="0 0 272 156" style="enable-background:new 0 0 272 156;" xml:space="preserve">
<style type="text/css">
	.st0{fill-rule:evenodd;clip-rule:evenodd;fill:#F5A700;}
	.st1{fill:#F5A700;}
</style>
<g>
	<g>
		<path class="st1" d="M30.6,51.2c1.5,0.8,3.8,1.7,6.5,1.7c2.1,0,3.4-0.7,3.5-2.5c0-1.6-0.9-2.3-2.5-2.9l-2.8-1.1
			c-3.6-1.4-5.9-3.7-5.9-7.8c0-5.2,3.8-8,8.7-8c3.1,0,6,0.7,7.8,1.6L44.3,37c-1.3-0.7-3.9-1.5-5.9-1.5c-1.8,0-3,0.7-3,2.4
			c0,1.6,0.9,2.2,2.7,3l3.5,1.4c3.3,1.3,5.3,3.4,5.3,7.1c0,5.5-3.9,8.3-9.7,8.3c-3.6,0-6.7-1.1-8.2-2.1L30.6,51.2z"/>
		<path class="st1" d="M50.9,31.1h17.2V36H56.9v5.6h7.6v4.8h-7.6v6h11.9v4.9H50.9V31.1z"/>
		<path class="st1" d="M72.8,31.1H90V36H78.7v5.6h7.6v4.8h-7.6v6h11.9v4.9H72.8V31.1z"/>
		<path class="st1" d="M94.6,31.1h5.9v10.7l9.2-10.7h7v0.5l-10,11.2l9.7,14v0.5h-7l-6.9-10.1l-2.1,2.3v7.8h-5.9V31.1z"/>
		<path class="st1" d="M126.3,47.2l-8.4-15.5v-0.6h6.3l5.3,10.4l5.2-10.4h6v0.6l-8.4,15.5v10.1h-5.9V47.2z"/>
		<path class="st1" d="M141.2,44.2c0-10.1,5.2-13.6,11-13.6c6.3,0,11,3,11,13.6c0,10.1-5.2,13.6-11,13.6
			C145.9,57.8,141.2,54.7,141.2,44.2z M157.1,44.2c0-7.3-1.6-8.7-4.9-8.7c-3.4,0-4.9,1.4-4.9,8.7c0,7.3,1.6,8.7,4.9,8.7
			C155.6,52.9,157.1,51.5,157.1,44.2z"/>
		<path class="st1" d="M167.4,31.1h6V47c0,4.9,1.2,5.8,4.3,5.8c3,0,4.2-1,4.2-5.8V31.1h6v16.5c0,8.1-4.7,10.2-10.2,10.2
			c-5.9,0-10.3-1.6-10.3-10.1V31.1z"/>
		<path d="M30.6,86.4c1.5,0.8,3.8,1.7,6.5,1.7c2.1,0,3.4-0.7,3.5-2.5c0-1.6-0.9-2.3-2.5-2.9l-2.8-1.1c-3.6-1.4-5.9-3.7-5.9-7.8
			c0-5.2,3.8-8,8.7-8c3.1,0,6,0.7,7.8,1.6l-1.6,4.7c-1.3-0.7-3.9-1.5-5.9-1.5c-1.8,0-3,0.7-3,2.4c0,1.6,0.9,2.2,2.7,3l3.5,1.4
			c3.3,1.3,5.3,3.4,5.3,7.1c0,5.5-3.9,8.3-9.7,8.3c-3.6,0-6.7-1.1-8.2-2.1L30.6,86.4z"/>
		<path d="M55.5,71.2h-6.7v-5h19.4v5h-6.8v21.3h-5.9V71.2z"/>
		<path d="M71.5,66.3h9.4c6.1,0,9,3,9,8.5c0,3.6-1.4,6.1-4,7.4l6,9.7v0.6h-6.4l-5.2-9.3h-2.8v9.3h-5.9V66.3z M79.5,78.4
			c2.7,0,4.2-0.6,4.2-3.6c0-3-1.5-3.6-4.2-3.6h-2.2v7.2H79.5z"/>
		<path d="M93.8,92l8.2-25.7h7.1l8.2,25.7v0.5h-6.1l-1.6-5.4H101l-1.6,5.4h-5.7V92z M108.2,82.3l-2.9-9.7l-2.9,9.7H108.2z"/>
		<path d="M122.6,71.2h-6.7v-5h19.4v5h-6.8v21.3h-5.9V71.2z"/>
		<path d="M138.6,66.3h17.2v4.9h-11.3v5.6h7.6v4.8h-7.6v6h11.9v4.9h-17.8V66.3z"/>
		<path d="M158.9,79.4c0-10.4,5.7-13.6,11.6-13.6c3.3,0,5.5,0.5,7.6,1.7l-1.7,4.6c-1.6-0.9-3.4-1.4-5.7-1.4c-3.7,0-5.8,1.4-5.8,8.6
			c0,7.1,2,8.6,5.4,8.6c1.5,0,2.7-0.3,3.6-0.7v-4.5h-3.4v-4.3h9.1v14.3h-4.4l-0.4-1.8c-1.1,1.1-3.1,2-5.2,2
			C163,92.9,158.9,89.4,158.9,79.4z"/>
		<path d="M189.8,82.4l-8.4-15.5v-0.6h6.2l5.3,10.4l5.2-10.4h6v0.6l-8.4,15.5v10.1h-5.9V82.4z"/>
		<path d="M30.4,114.6c0-9.7,4.1-13.4,10.2-13.4c2.7,0,4.8,0.8,6.4,1.9l-0.7,1.1c-1.8-1.1-3.5-1.7-5.7-1.7c-5.4,0-8.8,3-8.8,12.1
			c0,8.5,3.3,12.1,8.7,12.1c2.5,0,4.3-0.6,6.3-2.1l0.6,1c-1.6,1.4-3.9,2.4-7,2.4C34.6,128,30.4,124.1,30.4,114.6z"/>
		<path d="M50.5,114.6c0-10,4-13.4,9.5-13.4c5.6,0,9.5,3.4,9.5,13.4S65.5,128,60,128C54.4,128,50.5,124.5,50.5,114.6z M68.1,114.6
			c0-8.4-2.8-12.1-8.1-12.1c-5.4,0-8.1,3.7-8.1,12.1c0,8.4,2.8,12.1,8.1,12.1C65.4,126.7,68.1,123,68.1,114.6z"/>
		<path d="M75.7,101.4h1.9l14.2,24.4v-24.4h1.3v26.2h-1.6L77,102.9v24.7h-1.3V101.4z"/>
		<path d="M98.6,124.6c1.5,0.9,3.4,2.1,6.4,2.1c3.4,0,6.1-1.8,6.1-5.6c0-3.4-1.5-4.5-4.6-5.6l-2.1-0.7c-3.7-1.3-5.8-3.2-5.8-7
			c0-4.4,3-6.6,7-6.6c2.5,0,4.6,0.8,6.1,1.7l-0.6,1.3c-1.4-0.8-3.5-1.6-5.8-1.6c-3.2,0-5.4,1.7-5.4,5c0,3,1.5,4.6,4.5,5.7l2.9,1.1
			c3.7,1.3,5.2,3.2,5.2,6.6c0,4.3-2.7,7.1-7.7,7.1c-2.8,0-5.2-0.9-6.9-2.2L98.6,124.6z"/>
		<path d="M117.6,101.4h1.4V117c0,7.7,1.9,9.7,6.9,9.7c5.1,0,6.9-2.1,6.9-9.8v-15.3h1.4V117c0,7.8-2.1,10.9-8.3,10.9
			c-6.3,0-8.3-2.9-8.3-10.7V101.4z"/>
		<path d="M141.4,101.4h1.4v24.9h11.8v1.3h-13.2V101.4z"/>
		<path d="M161.1,102.7h-7.6v-1.3h16.6v1.3h-7.7v24.9h-1.4V102.7z"/>
		<path d="M169.4,127.4l8.4-26h1.9l8.4,26v0.3h-1.4l-2.8-8.4h-10.4l-2.7,8.4h-1.4V127.4z M183.5,117.9l-4.8-15l-4.8,15H183.5z"/>
		<path d="M193.1,101.4h1.9l14.2,24.4v-24.4h1.3v26.2H209l-14.5-24.7v24.7h-1.3V101.4z"/>
		<path d="M216.7,114.6c0-9.7,4.1-13.4,10.2-13.4c2.7,0,4.8,0.8,6.4,1.9l-0.7,1.1c-1.8-1.1-3.5-1.7-5.7-1.7c-5.4,0-8.8,3-8.8,12.1
			c0,8.5,3.3,12.1,8.7,12.1c2.5,0,4.3-0.6,6.3-2.1l0.7,1c-1.6,1.4-3.9,2.4-7,2.4C220.8,128,216.7,124.1,216.7,114.6z"/>
		<path d="M245.2,116.9l-8.5-15.2v-0.3h1.4l7.9,14l7.6-14h1.4v0.3l-8.4,15.2v10.8h-1.4V116.9z"/>
	</g>
	<rect x="14.1" y="15.4" width="1.2" height="130.4"/>
</g>
</svg>
